<svg xmlns="http://www.w3.org/2000/svg" viewBox="0 0 525.26 230.56"><defs><style>.cls-1{fill:#00b7a3;}.cls-2{fill:#230c00;}.cls-3{fill:#e8630a;}</style></defs><g id="Capa_2" data-name="Capa 2"><g id="Capa_1-2" data-name="Capa 1"><g id="logo_sobre_amarillo"><g id="le_tiende" data-name="le tiende"><path class="cls-1" d="M23.84,135.81q-2.4,5.59-4.5,11.7a46.36,46.36,0,0,0-2.5,12.1,17.66,17.66,0,0,0-.3,2.5,22.9,22.9,0,0,0,0,3.1,8.78,8.78,0,0,0,.7,3,3.67,3.67,0,0,0,2,2,3.9,3.9,0,0,0,2.9.1,15,15,0,0,0,3.4-1.5,18.19,18.19,0,0,0,3.1-2.3,27.29,27.29,0,0,1,2.2-1.9,69,69,0,0,0,5.5-6.4q3.09-4,6-8.2t5.3-7.9q2.4-3.71,3.6-5.5a1.67,1.67,0,0,1,1.4-1,1.79,1.79,0,0,1,1.4.7,4,4,0,0,1,.8,2,4.15,4.15,0,0,1-.6,2.7q-2.2,4-5.1,8.5t-6.2,8.9q-3.3,4.4-6.5,7.9a36.63,36.63,0,0,1-5.8,5.3,27.79,27.79,0,0,1-5,2.8,14.26,14.26,0,0,1-6.6.6,22.53,22.53,0,0,1-11.8-4.4A16.18,16.18,0,0,1,.44,160a34.29,34.29,0,0,1,.9-14.9q2.1-7.5,4.7-14.3,1.39-3.8,4.9-11.3t7.7-16.2q4.2-8.7,8.5-17.4T34.84,71l1.4-2.8a31.79,31.79,0,0,1,1.9-3.3c.73-1.13,1.46-2.17,2.2-3.1a7,7,0,0,1,2.3-2,11.64,11.64,0,0,1,5.2-.7,35.27,35.27,0,0,1,5.6.5,13.67,13.67,0,0,1,2.7,1.1,10,10,0,0,1,2.3,1.7,4.8,4.8,0,0,1,1.3,2.4,4.54,4.54,0,0,1-.5,3,65.64,65.64,0,0,1-4.4,7.3Q52,79.21,50.44,82q-2,3.4-5.2,9.2t-6.8,13q-3.6,7.2-7.5,15.4T23.84,135.81Z"/><path class="cls-1" d="M112.63,137.41c1.07-1.73,2-2.73,2.9-3a2.15,2.15,0,0,1,2.2.4,3.47,3.47,0,0,1,1.1,2.2,3.61,3.61,0,0,1-.6,2.6,67.64,67.64,0,0,1-4.7,6.9q-3.5,4.69-8.1,9.8a123.88,123.88,0,0,1-9.9,9.8,35.91,35.91,0,0,1-10.3,6.7,29.45,29.45,0,0,1-8.2,2,34,34,0,0,1-8.2-.2,27.7,27.7,0,0,1-7.5-2.2,22.54,22.54,0,0,1-5.9-3.8,19.8,19.8,0,0,1-5.1-6.8,25.5,25.5,0,0,1-2.1-8,35.79,35.79,0,0,1,.2-8.4,29.56,29.56,0,0,1,2.2-7.8q7-17,17.7-24.1a33.29,33.29,0,0,1,23.3-5.5,16.38,16.38,0,0,1,7,2.5,10.77,10.77,0,0,1,4,4.7,11,11,0,0,1,.7,6.1,17,17,0,0,1-2.7,6.7,19.22,19.22,0,0,1-12.6,8.9,52.13,52.13,0,0,1-18,.3c-.4,1.2-.87,2.4-1.4,3.6l-1.2,3.2c-.4,1.07-.73,2-1,2.8q-.6,2.2-1.3,4.9a30.16,30.16,0,0,0-.9,5.6,24.87,24.87,0,0,0,.2,5.5,7.75,7.75,0,0,0,2.2,4.4,6.63,6.63,0,0,0,4.6,2.5,16.51,16.51,0,0,0,5.7-.4,24,24,0,0,0,5.7-2.2q2.81-1.5,4.6-2.7a72.11,72.11,0,0,0,6.9-5.5,99.67,99.67,0,0,0,7.1-7q3.4-3.71,6.4-7.4A58.05,58.05,0,0,0,112.63,137.41Zm-20.8-22.8a6.12,6.12,0,0,0-3.9.7,20.73,20.73,0,0,0-5.3,3.6,48.2,48.2,0,0,0-5.7,6.2,36.42,36.42,0,0,0-4.9,8.5,19.75,19.75,0,0,0,7,.3,15.87,15.87,0,0,0,5.3-1.8,14.82,14.82,0,0,0,4-3.3,37.26,37.26,0,0,0,3.1-4.2,17.86,17.86,0,0,0,1.2-2.5,12.3,12.3,0,0,0,.8-3.1,7.52,7.52,0,0,0-.1-2.8A2.15,2.15,0,0,0,91.83,114.61Z"/><path class="cls-1" d="M250.43,86.41c1.2.13,1.67,1,1.4,2.7a4.88,4.88,0,0,1-2.6,3.7,16.45,16.45,0,0,1-7.7,2.2c-2.87.13-5.63.2-8.3.2a116.52,116.52,0,0,1-16.7-1.2q-8.29-1.2-16.7-2.8-4.61,7.2-9,14.4t-8.2,14.6a155.7,155.7,0,0,0-6.8,15.2,108.21,108.21,0,0,0-4.8,16.2c-.13.8-.37,2.17-.7,4.1a35,35,0,0,0-.5,5.9,16.18,16.18,0,0,0,.8,5.3,3.45,3.45,0,0,0,3.2,2.5c1.07,0,2.43-.73,4.1-2.2a57.84,57.84,0,0,0,5.5-5.7q3-3.49,6.1-7.7t5.6-7.9q2.51-3.71,4.2-6.4t2.1-3.3c.4-.93,1.17-1.13,2.3-.6s1.5,1.2,1.1,2q-1.61,3.6-4.6,8.9t-6.7,10.6a120.9,120.9,0,0,1-7.5,9.7,32.7,32.7,0,0,1-7,6.4,10.88,10.88,0,0,1-5.2,1.6,19.38,19.38,0,0,1-6.1-.6,21.92,21.92,0,0,1-5.8-2.4,11.91,11.91,0,0,1-4.1-3.8,20.65,20.65,0,0,1-4-10.2,38.09,38.09,0,0,1,.5-11.3,70.41,70.41,0,0,1,3.2-11.3q2.1-5.6,3.9-10.2,3.19-7.8,6.7-14.9t7.7-14.5c1.07-1.87,1.87-3.23,2.4-4.1s1.33-2.23,2.4-4.1q-4.8-.8-9.6-1.4t-9.8-.8c-2.67-.14-5.3-.17-7.9-.11a36.4,36.4,0,0,0-7.9,1.11c-.8.27-2.13.7-4,1.3A10.79,10.79,0,0,0,137,90c-.8.67-1.46.9-2,.7a2.54,2.54,0,0,1-1.3-1.2,3.47,3.47,0,0,1-.4-2,2.3,2.3,0,0,1,.9-1.7,21.16,21.16,0,0,1,3.1-1.85c1.14-.56,2-1,2.5-1.25a23.76,23.76,0,0,1,7.4-2.08c2.54-.27,5.13-.48,7.8-.62a102.06,102.06,0,0,1,14.4.62q7.2.83,14.4,2.06l5.4-8.48q1.8-2.59,3.5-4.7a8.06,8.06,0,0,1,5.1-2.7,16.45,16.45,0,0,1,6.1.4,10.69,10.69,0,0,1,5.3,2.6,4.44,4.44,0,0,1,1.3,3.2,8.17,8.17,0,0,1-1,3.3,21,21,0,0,1-2.2,3.32,21.58,21.58,0,0,0-2.1,3.06l-2.4,3.72q6,1.2,12,2.2t12,1.4c2.27.13,4.63.23,7.1.3a27.62,27.62,0,0,0,7.1-.7c.93-.27,1.83-.5,2.7-.7a7.59,7.59,0,0,0,2.5-1.1q1-.41,2.1-.9A5.1,5.1,0,0,1,250.43,86.41Z"/><path class="cls-1" d="M241.83,136c.53-.93,1.06-1.4,1.6-1.4a1.74,1.74,0,0,1,1.4.8,4.45,4.45,0,0,1,.8,1.8,2.72,2.72,0,0,1-.2,1.8q-1.8,3.8-5.2,9.4t-6.8,10.2q-2.2,2.8-4.9,6.1a45.86,45.86,0,0,1-5.9,6,29.59,29.59,0,0,1-6.7,4.3,10.66,10.66,0,0,1-7.3.6,20.59,20.59,0,0,1-9.4-5q-3.79-3.6-4-10a44.51,44.51,0,0,1,1.8-13.7,92.76,92.76,0,0,1,5.2-13.7,139,139,0,0,1,7.3-13.5q4.09-6.7,8.1-13.1a3.66,3.66,0,0,1,3-1.2,20.6,20.6,0,0,1,4.3.5,24.07,24.07,0,0,1,4.2,1.3,17.56,17.56,0,0,1,2.5,1.2q2.79,2.2,3,3.3c.13.73-.34,2-1.4,3.7q-1.8,3-4.2,6.9t-5.2,8.3q-2.81,4.39-5.5,9.1t-5.1,9.5a35.16,35.16,0,0,0-3.1,8.5,28.17,28.17,0,0,0-.7,9.1c.27,2.93,1,4.5,2.3,4.7a5.72,5.72,0,0,0,4.2-1.4,30.64,30.64,0,0,0,4.6-4.3l3.7-4.2a98.57,98.57,0,0,0,9.4-12.3Q237.83,142.82,241.83,136Zm-1.6-49.6a4.22,4.22,0,0,1-2.6,0,18.39,18.39,0,0,1-3.3-1.2,13.69,13.69,0,0,1-3-1.9,5.19,5.19,0,0,1-1.7-2.3,5.51,5.51,0,0,1,0-3,16.56,16.56,0,0,1,1.3-3.9,25.57,25.57,0,0,1,2-3.5,6,6,0,0,1,1.9-2,5.68,5.68,0,0,1,2.9-.1,22.39,22.39,0,0,1,3.9,1,20.88,20.88,0,0,1,3.7,1.7,8.2,8.2,0,0,1,2.3,1.8,3.3,3.3,0,0,1,.7,3.3,14.64,14.64,0,0,1-1.8,4.2,18.88,18.88,0,0,1-3.1,3.8A8.51,8.51,0,0,1,240.23,86.41Z"/><path class="cls-1" d="M303,137.41c1.06-1.73,2-2.73,2.9-3a2.15,2.15,0,0,1,2.2.4,3.52,3.52,0,0,1,1.1,2.2,3.66,3.66,0,0,1-.6,2.6,67.64,67.64,0,0,1-4.7,6.9q-3.51,4.69-8.1,9.8a125.57,125.57,0,0,1-9.9,9.8,36.18,36.18,0,0,1-10.3,6.7,29.54,29.54,0,0,1-8.2,2,33.94,33.94,0,0,1-8.2-.2,27.7,27.7,0,0,1-7.5-2.2,22.37,22.37,0,0,1-5.9-3.8,19.8,19.8,0,0,1-5.1-6.8,25.5,25.5,0,0,1-2.1-8,35.26,35.26,0,0,1,.2-8.4,29.19,29.19,0,0,1,2.2-7.8q7-17,17.7-24.1A33.29,33.29,0,0,1,282,108a16.42,16.42,0,0,1,7,2.5,10.83,10.83,0,0,1,4,4.7,11,11,0,0,1,.7,6.1A17.32,17.32,0,0,1,291,128a19.24,19.24,0,0,1-12.6,8.9,52.14,52.14,0,0,1-18,.3c-.4,1.2-.87,2.4-1.4,3.6l-1.2,3.2c-.4,1.07-.74,2-1,2.8-.4,1.47-.84,3.1-1.3,4.9a30.16,30.16,0,0,0-.9,5.6,24.28,24.28,0,0,0,.2,5.5,7.69,7.69,0,0,0,2.2,4.4,6.63,6.63,0,0,0,4.6,2.5,16.54,16.54,0,0,0,5.7-.4,24.2,24.2,0,0,0,5.7-2.2c1.86-1,3.4-1.9,4.6-2.7a72.11,72.11,0,0,0,6.9-5.5q3.69-3.3,7.1-7t6.4-7.4A59.17,59.17,0,0,0,303,137.41Zm-20.8-22.8a6.1,6.1,0,0,0-3.9.7,20.39,20.39,0,0,0-5.3,3.6,47.49,47.49,0,0,0-5.7,6.2,36.07,36.07,0,0,0-4.9,8.5,19.74,19.74,0,0,0,7,.3,16,16,0,0,0,5.3-1.8,15,15,0,0,0,4-3.3,38.53,38.53,0,0,0,3.1-4.2,17.86,17.86,0,0,0,1.2-2.5,12.74,12.74,0,0,0,.8-3.1,7.74,7.74,0,0,0-.1-2.8A2.15,2.15,0,0,0,282.23,114.61Z"/><path class="cls-1" d="M376.23,136.61c.8-1.2,1.63-1.33,2.5-.4a2.89,2.89,0,0,1,.9,2.8q-.4.8-2.2,3.8t-5,7.3q-3.21,4.3-7.4,9.5a129.12,129.12,0,0,1-9.2,10.2,16.16,16.16,0,0,1-5.4,3.5,7,7,0,0,1-6-.1,21.57,21.57,0,0,1-6.1-4.3,18.48,18.48,0,0,1-4.1-6.1,13.16,13.16,0,0,1,.3-8.9c1.13-3.13,2.23-6,3.3-8.5q2-4.2,4.2-8t4.6-7.8c.4-.67,1-1.77,1.9-3.3s1.7-3.1,2.5-4.7a23.17,23.17,0,0,0,1.7-4.3q.5-1.91-.3-2.1a3,3,0,0,0-2.6.5,13.88,13.88,0,0,0-2.7,2.3,27,27,0,0,0-2.3,2.8,17.68,17.68,0,0,1-1.6,2q-2.81,4-5.3,8t-5.3,8q-3.81,6-6.4,10.6t-4.6,8.4c-1.34,2.53-2.5,4.83-3.5,6.9s-2,4.1-2.9,6.1a15.75,15.75,0,0,1-2.2,2.8,7.53,7.53,0,0,1-3,1.8,16.93,16.93,0,0,1-11.7-2c-1.13-.67-2.3-1.4-3.5-2.2a7.72,7.72,0,0,1-2.4-2.2,3.32,3.32,0,0,1-.2-3q4.59-13.8,10-26.6a236.53,236.53,0,0,1,12.2-24.8l4.2-7.4a9.46,9.46,0,0,1,1.1-2,2.19,2.19,0,0,1,1.9-1,8.63,8.63,0,0,1,3.3.7l3.1,1.3c1.06.4,2.2.83,3.4,1.3a4.69,4.69,0,0,1,2.6,2.3,6.09,6.09,0,0,1,.2,5.5c-.8,2.07-1.54,3.83-2.2,5.3-.54,1.2-1.14,2.47-1.8,3.8s-1.54,3.13-2.6,5.4l-4.2,8.9q-2.61,5.5-6.4,14.3c1.2-1.87,2.36-3.8,3.5-5.8s2.3-4,3.5-6q2.4-4.4,5.2-9t5.7-8.8a81.14,81.14,0,0,1,5.9-7.6,34.87,34.87,0,0,1,5.8-5.4,10.71,10.71,0,0,1,5.6-1.2q2.79.2,5.6.6a36,36,0,0,1,4.9,1.2,11.74,11.74,0,0,1,4.3,2.4,7.16,7.16,0,0,1,2.3,3.7,10.54,10.54,0,0,1,.1,4.3,49.83,49.83,0,0,1-2.1,5.2q-1.71,3.79-3.9,8.1t-4.3,8.5q-2.1,4.2-3.3,6.2-1,1.8-2.6,4.9t-2.8,6.1a33.81,33.81,0,0,0-1.7,5.3c-.34,1.53-.17,2.43.5,2.7q1.39.6,5.1-3.1a99.65,99.65,0,0,0,7.9-9.1q4.2-5.4,8.2-11T376.23,136.61Z"/><path class="cls-1" d="M460,55.41a20.09,20.09,0,0,1,4,0,34.82,34.82,0,0,1,5.2.8,13.64,13.64,0,0,1,4.19,1.6c1.07.67,1.4,1.4,1,2.2q-3.59,6.6-7.6,15.1t-8.09,17.8q-4.11,9.3-8,18.7t-7.2,17.7q-3.31,8.3-5.71,14.8t-3.4,10.1a14.09,14.09,0,0,0-.69,2.7c-.2,1.13-.41,2.3-.61,3.5a20.69,20.69,0,0,0-.3,3.4,8.74,8.74,0,0,0,.41,2.8c.53,1.47,1.16,2.23,1.89,2.3a3.55,3.55,0,0,0,2.3-.7,10.91,10.91,0,0,0,2.31-2.1c.73-.87,1.36-1.63,1.89-2.3.8-1.07,2-2.83,3.5-5.3s3.14-5.1,4.8-7.9,3.2-5.5,4.61-8.1,2.36-4.5,2.89-5.7a3.91,3.91,0,0,1,1.9-2.4,2.1,2.1,0,0,1,2,.2,4.71,4.71,0,0,1,1.5,1.7,2.65,2.65,0,0,1,.41,1.9,47.79,47.79,0,0,1-3.41,7.1q-2.6,4.69-5.59,9.6t-5.81,8.9c-1.86,2.67-3.06,4.33-3.6,5q-3.39,4-5.9,4.9a16.69,16.69,0,0,1-5.69.9,18.09,18.09,0,0,1-9.41-1.8,12.24,12.24,0,0,1-5.29-5.6,17.12,17.12,0,0,1-1.41-8.5,40.46,40.46,0,0,1,2.11-10.3,72.4,72.4,0,0,1-4.7,6.4,104.6,104.6,0,0,1-7.91,8.8,69,69,0,0,1-9.09,7.7q-4.71,3.3-8.3,3.3a18.65,18.65,0,0,1-8.41-2.1,21.32,21.32,0,0,1-7-5.5,12.22,12.22,0,0,1-2.7-6.4,31.63,31.63,0,0,1,0-7.9,45,45,0,0,1,1.61-7.7,50.24,50.24,0,0,1,2.09-5.8q2.21-4.4,6.21-11.6a62.77,62.77,0,0,1,9.79-13.2,30.38,30.38,0,0,1,11.6-8.1,27.81,27.81,0,0,1,11.7-1.9,21,21,0,0,1,9.8,3.1,15,15,0,0,1,6.11,7.1q.8-2.6,3.5-9.3t6-14.4q3.3-7.69,6.59-14.7a96.27,96.27,0,0,1,5.5-10.4c.54-.8,1.11-1.73,1.7-2.8s1.24-2.13,1.91-3.2a15.27,15.27,0,0,1,2.19-2.8A6.1,6.1,0,0,1,460,55.41Zm-54.8,100.4a87,87,0,0,0,5.59-7.9q3-4.69,5.8-9.5t4.8-8.7a27.08,27.08,0,0,0,2.4-5.7c.94-3.33,1.17-5.87.71-7.6s-2.44-2.2-5.91-1.4a19.33,19.33,0,0,0-7.3,3.1,44,44,0,0,0-6.09,5.1,73.8,73.8,0,0,0-11.41,16.3,63.23,63.23,0,0,0-6.59,18.9,25.9,25.9,0,0,0-.61,3.5,14.82,14.82,0,0,0,0,3.4,4.53,4.53,0,0,0,1.11,2.5c.59.67,1.63.87,3.09.6a8.5,8.5,0,0,0,3.91-1.7,33.37,33.37,0,0,0,4.09-3.5,52.22,52.22,0,0,0,3.71-4.1Q404.23,157,405.23,155.81Z"/><path class="cls-1" d="M519,137.41c1.07-1.73,2-2.73,2.9-3a2.15,2.15,0,0,1,2.2.4,3.47,3.47,0,0,1,1.1,2.2,3.56,3.56,0,0,1-.6,2.6,66,66,0,0,1-4.7,6.9q-3.49,4.69-8.1,9.8a122.23,122.23,0,0,1-9.9,9.8,35.91,35.91,0,0,1-10.3,6.7,29.45,29.45,0,0,1-8.2,2,34,34,0,0,1-8.2-.2,27.92,27.92,0,0,1-7.5-2.2,22.54,22.54,0,0,1-5.9-3.8,20.06,20.06,0,0,1-5.1-6.8,25.5,25.5,0,0,1-2.1-8,35.79,35.79,0,0,1,.2-8.4,29.56,29.56,0,0,1,2.2-7.8q7-17,17.7-24.1A33.31,33.31,0,0,1,498,108a16.38,16.38,0,0,1,7,2.5,10.77,10.77,0,0,1,4,4.7,11,11,0,0,1,.7,6.1A17,17,0,0,1,507,128a19.2,19.2,0,0,1-12.6,8.9,52.13,52.13,0,0,1-18,.3,38.14,38.14,0,0,1-1.4,3.6l-1.2,3.2c-.4,1.07-.73,2-1,2.8q-.6,2.2-1.3,4.9a31.92,31.92,0,0,0-.9,5.6,25.49,25.49,0,0,0,.2,5.5,7.75,7.75,0,0,0,2.2,4.4,6.65,6.65,0,0,0,4.6,2.5,16.51,16.51,0,0,0,5.7-.4,23.87,23.87,0,0,0,5.7-2.2q2.81-1.5,4.6-2.7a69.7,69.7,0,0,0,6.9-5.5,97.61,97.61,0,0,0,7.1-7q3.4-3.71,6.4-7.4A58.05,58.05,0,0,0,519,137.41Zm-20.8-22.8a6.12,6.12,0,0,0-3.9.7,20.73,20.73,0,0,0-5.3,3.6,48.93,48.93,0,0,0-5.7,6.2,36.78,36.78,0,0,0-4.9,8.5,19.75,19.75,0,0,0,7,.3,15.87,15.87,0,0,0,5.3-1.8,14.67,14.67,0,0,0,4-3.3,36.08,36.08,0,0,0,3.1-4.2,17.86,17.86,0,0,0,1.2-2.5,12.3,12.3,0,0,0,.8-3.1,7.52,7.52,0,0,0-.1-2.8A2.15,2.15,0,0,0,498.22,114.61Z"/></g><g id="date_gusto" data-name="date gusto"><path class="cls-2" d="M84.37,59.37a5.16,5.16,0,1,1,8.7-5.55,5.16,5.16,0,0,1-1.57,7.12,5.16,5.16,0,0,1-7.13-1.57Z"/><path class="cls-2" d="M117.61,30.55a7.1,7.1,0,0,1,4,1.29,9,9,0,0,1,2.9,3.56,8.79,8.79,0,0,1,1,4.48A7,7,0,0,1,124,43.8a10.5,10.5,0,0,1-3.84,3L115.46,49l-7.25-15.07,4.69-2.26A10.22,10.22,0,0,1,117.61,30.55Zm5.47,10.89a6.49,6.49,0,0,0-.55-5.07,6.69,6.69,0,0,0-3.66-3.65,6.61,6.61,0,0,0-5.2.56l-2.73,1.31,5.71,11.86,2.72-1.32A6.62,6.62,0,0,0,123.08,41.44Z"/><path class="cls-2" d="M153.28,29.08l-6.88,2.44,0,3.95-2.17.77.15-17.69,2.38-.84L158,31.37l-2.18.77Zm-1.19-1.46-5.67-7,0,9Z"/><path class="cls-2" d="M181.52,7.6l.42,1.73-4.43,1.08,3.54,14.52-2.12.52-3.54-14.53L170.94,12l-.42-1.73Z"/><path class="cls-2" d="M203.46,5.33l.8,5.53,6-.87.26,1.78-6,.88.82,5.7,6.75-1,.25,1.78-8.9,1.29L201,3.86l8.9-1.29.26,1.78Z"/><path class="cls-2" d="M266.31,5.21a5.11,5.11,0,0,0-1.94-2.33,5.73,5.73,0,0,0-3-.91,6.25,6.25,0,0,0-3.18.7,5.75,5.75,0,0,0-2.28,2.23A7.18,7.18,0,0,0,255,8.34a7,7,0,0,0,.69,3.48,5.69,5.69,0,0,0,2.13,2.37,6.28,6.28,0,0,0,3.12.9A5.68,5.68,0,0,0,265,13.76a6,6,0,0,0,2-3.89l-6.67-.22.06-1.78,9,.3-.06,1.68a8.25,8.25,0,0,1-1.42,3.73,8,8,0,0,1-3,2.62,8.17,8.17,0,0,1-4,.86,8.44,8.44,0,0,1-4.21-1.23,8,8,0,0,1-2.93-3.14,8.59,8.59,0,0,1-1-4.42A8.68,8.68,0,0,1,254,3.9,8,8,0,0,1,257.11,1,8.33,8.33,0,0,1,261.4,0a8.59,8.59,0,0,1,4.67,1.47,7.62,7.62,0,0,1,2.86,3.82Z"/><path class="cls-2" d="M291.88,2.66l-1.51,10.48a4.47,4.47,0,0,0,.61,3.43,4.75,4.75,0,0,0,6,.87,4.45,4.45,0,0,0,1.56-3.13L300,3.84l2.16.31L300.68,14.6A6.82,6.82,0,0,1,299.35,18a5.27,5.27,0,0,1-2.55,1.78,7.75,7.75,0,0,1-6.34-.91,5.22,5.22,0,0,1-1.93-2.43,6.9,6.9,0,0,1-.32-3.6l1.51-10.45Z"/><path class="cls-2" d="M321,24.65a5,5,0,0,1-1.59-2.09,4.22,4.22,0,0,1-.16-2.52l2.26.57a3.07,3.07,0,0,0,.46,2.15,3.51,3.51,0,0,0,2.21,1.39,3.65,3.65,0,0,0,2.58-.16,2.51,2.51,0,0,0,1.36-1.72,2.27,2.27,0,0,0-.13-1.64A3.31,3.31,0,0,0,327,19.42a20.12,20.12,0,0,0-1.9-1.17,19,19,0,0,1-2.37-1.49A4.33,4.33,0,0,1,321.36,15a4.05,4.05,0,0,1-.08-2.58,4.39,4.39,0,0,1,1.27-2.18,4.56,4.56,0,0,1,2.3-1.11,7.08,7.08,0,0,1,2.94.15,6.08,6.08,0,0,1,3.45,2.08,4.35,4.35,0,0,1,.88,3.44l-2.33-.58a2.61,2.61,0,0,0-.56-1.89,3.61,3.61,0,0,0-2.11-1.29,3.38,3.38,0,0,0-2.33.15,2.39,2.39,0,0,0-1.33,1.71,2.16,2.16,0,0,0,.14,1.56,3.24,3.24,0,0,0,1,1.16,21.63,21.63,0,0,0,1.89,1.19,19.49,19.49,0,0,1,2.37,1.52,4.35,4.35,0,0,1,1.34,1.75,4,4,0,0,1,.09,2.61,4.42,4.42,0,0,1-1.19,2.07A4.84,4.84,0,0,1,326.83,26a6.35,6.35,0,0,1-3.08-.08A7.2,7.2,0,0,1,321,24.65Z"/><path class="cls-2" d="M362.53,20.42l-.6,1.67-4.29-1.54-5.06,14.07-2.06-.74,5.06-14.07-4.31-1.55.6-1.68Z"/><path class="cls-2" d="M377.13,43.77a7.92,7.92,0,0,1-1.4-4.07,9.26,9.26,0,0,1,3.85-7.92,8.13,8.13,0,0,1,4.07-1.41,8.89,8.89,0,0,1,7.66,3.73,8,8,0,0,1,1.39,4,8.88,8.88,0,0,1-.94,4.46,8.74,8.74,0,0,1-2.93,3.48,7.87,7.87,0,0,1-4,1.41,8.5,8.5,0,0,1-4.32-.89A8.35,8.35,0,0,1,377.13,43.77Zm7.36,1.79a5.81,5.81,0,0,0,3-1.13,8.11,8.11,0,0,0,3.07-6.32,5.91,5.91,0,0,0-1-3A6.25,6.25,0,0,0,387.12,33a6.19,6.19,0,0,0-3.21-.65,5.81,5.81,0,0,0-3,1.12,8.07,8.07,0,0,0-3.07,6.31,5.66,5.66,0,0,0,1,3.06,6.13,6.13,0,0,0,2.48,2.12A6.26,6.26,0,0,0,384.49,45.56Z"/><path class="cls-2" d="M407.92,53.71a5.16,5.16,0,1,1-.7,3.88A5,5,0,0,1,407.92,53.71Z"/></g><g id="seña"><path class="cls-3" d="M119.61,204.76c21,7.63,42.73,12.32,64.66,15.41,11,1.48,22,2.66,33,3.33s22.12,1.11,33.19,1.07,22.14-.37,33.18-1.12,22.06-1.89,33-3.37c21.92-3.13,43.67-7.85,64.63-15.54a198.68,198.68,0,0,1-31.19,12.32,285.77,285.77,0,0,1-32.69,7.84c-11,2.06-22.18,3.39-33.35,4.41s-22.39,1.39-33.61,1.45-22.43-.48-33.61-1.41-22.32-2.33-33.35-4.37A288.54,288.54,0,0,1,150.82,217,200.88,200.88,0,0,1,119.61,204.76Z"/></g></g></g></g></svg>