<svg xmlns="http://www.w3.org/2000/svg" viewBox="0 0 189.55 135"><defs><style>.cls-1{fill:#230c00;}</style></defs><g id="Capa_2" data-name="Capa 2"><g id="Capa_1-2" data-name="Capa 1"><g id="mono_marron"><path class="cls-1" d="M22.5,102.87A54.2,54.2,0,0,0,19.59,117a22.76,22.76,0,0,0-.35,2.91,27.17,27.17,0,0,0,0,3.61,10.43,10.43,0,0,0,.82,3.49,4.26,4.26,0,0,0,2.32,2.32,4.5,4.5,0,0,0,3.38.12,17.91,17.91,0,0,0,3.95-1.74A21,21,0,0,0,33.32,125c1.09-1,1.94-1.75,2.56-2.21a81.54,81.54,0,0,0,6.4-7.45q3.6-4.65,7-9.54t6.17-9.19q2.79-4.31,4.19-6.4A1.93,1.93,0,0,1,61.25,89a2.07,2.07,0,0,1,1.62.81,4.59,4.59,0,0,1,.94,2.33,4.83,4.83,0,0,1-.7,3.14q-2.56,4.65-5.94,9.89T50,115.55q-3.84,5.13-7.56,9.2a42.41,42.41,0,0,1-6.75,6.16,31.47,31.47,0,0,1-5.82,3.26,16.32,16.32,0,0,1-7.68.7,26.26,26.26,0,0,1-13.73-5.12A18.8,18.8,0,0,1,.51,117.42a40.06,40.06,0,0,1,1-17.34Q4,91.35,7,83.44,8.65,79,12.73,70.29t9-18.85q4.89-10.12,9.9-20.24t9-17.34l1.63-3.26a41,41,0,0,1,2.21-3.84q1.29-2,2.56-3.61A8.19,8.19,0,0,1,49.61.83q1.86-.93,6-.82a41.51,41.51,0,0,1,6.52.58,16.05,16.05,0,0,1,3.14,1.28,11.58,11.58,0,0,1,2.67,2,5.56,5.56,0,0,1,1.52,2.79,5.25,5.25,0,0,1-.59,3.5,74.68,74.68,0,0,1-5.11,8.49q-3.27,4.77-5.12,8c-1.56,2.64-3.57,6.2-6.06,10.7s-5.11,9.54-7.91,15.13S39,64.05,36,70.41s-5.78,12.64-8.26,18.85Q24.94,95.77,22.5,102.87Z"/><path class="cls-1" d="M189.47,34.92a5.67,5.67,0,0,1-3,4.3,19,19,0,0,1-9,2.56q-5,.24-9.66.24a135.81,135.81,0,0,1-19.43-1.4q-9.66-1.4-19.43-3.26-5.36,8.39-10.47,16.76t-9.54,17A178.35,178.35,0,0,0,101,88.79a126.22,126.22,0,0,0-5.59,18.85c-.15.93-.43,2.52-.81,4.77a40.15,40.15,0,0,0-.59,6.87,18.72,18.72,0,0,0,.94,6.16,4,4,0,0,0,3.72,2.91q1.86,0,4.77-2.56a65.8,65.8,0,0,0,6.4-6.63q3.5-4.06,7.1-9t6.51-9.19q2.91-4.31,4.89-7.45t2.44-3.84c.47-1.08,1.36-1.32,2.68-.69s1.75,1.39,1.28,2.32q-1.86,4.19-5.35,10.36T121.63,114a138.13,138.13,0,0,1-8.73,11.29,37.91,37.91,0,0,1-8.14,7.44,12.66,12.66,0,0,1-6.05,1.87,22.51,22.51,0,0,1-7.1-.7,26,26,0,0,1-6.75-2.79,14,14,0,0,1-4.77-4.43,23.81,23.81,0,0,1-4.65-11.86A44.14,44.14,0,0,1,76,101.71a80.75,80.75,0,0,1,3.72-13.15q2.45-6.51,4.54-11.87,3.72-9.07,7.8-17.34t9-16.87q1.86-3.25,2.79-4.77t2.79-4.77Q101,32,95.45,31.31t-11.4-.93c-3.1-.15-6.17-.19-9.19-.11a41.67,41.67,0,0,0-9.2,1.28L61,33.06A12.56,12.56,0,0,0,55.89,36c-.93.77-1.71,1-2.33.81a2.91,2.91,0,0,1-1.51-1.4,4,4,0,0,1-.47-2.32,2.66,2.66,0,0,1,1.05-2A22.9,22.9,0,0,1,56.24,29c1.32-.63,2.29-1.09,2.91-1.4a28.4,28.4,0,0,1,8.61-2.33q4.42-.47,9.07-.7a122.06,122.06,0,0,1,16.76.7q8.37.93,16.75,2.33l6.29-9.77q2.09-3,4.07-5.47a9.38,9.38,0,0,1,5.93-3.14,18.94,18.94,0,0,1,7.1.46,12.43,12.43,0,0,1,6.17,3,5.13,5.13,0,0,1,1.51,3.72,9.49,9.49,0,0,1-1.16,3.84,23.53,23.53,0,0,1-2.56,3.84,25.81,25.81,0,0,0-2.44,3.49l-2.8,4.19q7,1.39,14,2.56t14,1.63q4,.22,8.26.35a32.5,32.5,0,0,0,8.26-.82c1.09-.31,2.13-.58,3.14-.81A8.93,8.93,0,0,0,183,33.41c.78-.31,1.59-.66,2.44-1a5.91,5.91,0,0,1,2.45-.58C189.23,31.93,189.78,33,189.47,34.92Z"/></g></g></g></svg>